<svg width="399.0000001679937" height="146.00000006147135" xmlns="http://www.w3.org/2000/svg">

 <g>
  <title>background</title>
  <rect height="148" width="401" y="-1" x="-1" fill="none" id="canvas_background"/>
 </g>
 <g>
  <title>Layer 1</title>
  <path d="m110.643005,20.290131l0,0l0,0l0,0l0,0c-2.473022,-1.860992 -5.034027,-3.519985 -7.664093,-4.983082c-1.903992,-1.058994 -4.295013,-0.563995 -5.604034,1.177097l-16.492188,21.912121l-1.176025,1.562996c-1.786011,2.372986 -4.638031,3.664982 -7.605072,3.528988c-1.082031,-0.049004 -2.164032,-0.039001 -3.242035,0.028999c-8.288071,0.524998 -16.307083,4.524986 -21.69313,11.680958c-4.32901,5.753006 -6.228027,12.576054 -5.878021,19.245098c0.063019,1.201012 0.757019,2.298019 1.851013,2.796021c2.269012,1.032005 4.016022,3.137016 4.453033,5.830048c0.617981,3.81002 -1.722015,7.552055 -5.417023,8.660049c-4.357025,1.306023 -8.832031,-1.362999 -9.814056,-5.724037c-0.531982,-2.363014 0.07901,-4.712029 1.463013,-6.481041c0.768005,-0.981003 1.154022,-2.203018 1.044006,-3.444023c-0.757996,-8.552063 1.52002,-17.402107 7.090027,-24.802097c7.025024,-9.333977 17.716064,-14.273952 28.560165,-14.336956c2.090027,-0.012001 4.052032,-1.010998 5.309052,-2.680988l15.188171,-20.178226c1.189026,-1.578999 0.42099,-3.847983 -1.476013,-4.404983c-25.429306,-7.460073 -53.903397,0.933994 -70.95845,23.146216c-22.09909,28.780926 -16.729064,70.280228 11.98703,92.463387c2.687012,2.076019 5.482025,3.909019 8.360046,5.508018c1.893005,1.052002 4.274017,0.537003 5.576996,-1.192993l16.490051,-21.911148l1.177002,-1.563011c1.786011,-2.373024 4.637062,-3.665039 7.604111,-3.529037c1.082001,0.049011 2.164001,0.039001 3.242004,-0.028992c8.289093,-0.525009 16.308197,-4.52504 21.694244,-11.681084c4.330078,-5.753044 6.229095,-12.577103 5.879059,-19.24614c-0.062988,-1.201012 -0.756989,-2.298019 -1.851013,-2.796028c-2.27002,-1.032005 -4.017029,-3.137016 -4.454041,-5.830036c-0.618011,-3.809006 1.722015,-7.551018 5.41806,-8.658016c4.357025,-1.305996 8.832123,1.362991 9.814117,5.724014c0.531982,2.362007 -0.07901,4.711014 -1.463013,6.480026c-0.768005,0.98101 -1.154022,2.203018 -1.044037,3.444023c0.758026,8.552071 -1.52002,17.40313 -7.090057,24.803177c-7.026093,9.334068 -17.717194,14.274109 -28.562317,14.337112c-2.090027,0.011993 -4.051025,1.011009 -5.309059,2.681015l-15.186073,20.177124c-1.180023,1.567993 -0.438995,3.841995 1.444,4.395996c25.632187,7.533997 54.367477,-1.044998 71.382553,-23.652107c21.925537,-29.135223 16.084686,-70.530338 -13.048004,-92.458458z" fill="#00a0ff" id="svg_2"/>
  <path d="m219.614319,38.324268l-0.000977,-1.566998c-0.000977,-1.132999 -0.920044,-2.051994 -2.052979,-2.051994l-51.423248,0c-1.133972,0 -2.052917,0.918995 -2.052917,2.052994l0,3.13699c0,1.133999 0.918945,2.052994 2.052917,2.052994l43.628326,0c1.255005,0 2.220947,1.106991 2.034058,2.347992c-1.223999,8.112972 -5.061035,23.285007 -17.050781,37.854115c-0.847076,1.029015 -2.419006,1.011009 -3.241028,-0.039001c-10.03186,-12.828094 -13.118835,-25.980156 -13.961792,-30.826138c-0.184021,-1.060993 -1.165985,-1.791996 -2.236969,-1.677998l-1.642975,0.174004l-1.448944,0.151001c-1.187988,0.124001 -2.026001,1.227993 -1.807983,2.402992c1.027954,5.557983 4.772919,20.841072 16.548706,35.389183c0.683014,0.84301 0.625031,2.076019 -0.174957,2.81002c-14.335785,13.149094 -27.228516,16.03112 -31.840424,16.65712c-1.026978,0.139999 -1.793945,1.00901 -1.78894,2.046021l0.014954,3.169014c0.006042,1.220009 1.065002,2.174026 2.27594,2.032028c5.483917,-0.645012 20.115601,-3.743042 36.283356,-18.613144c0.799011,-0.734001 2.013947,-0.734001 2.809998,0.003006c7.812866,7.235054 17.798706,14.211098 31.265625,18.495132c1.090942,0.347 2.258911,-0.28701 2.581909,-1.38501l0.886963,-3.007027c0.317993,-1.078011 -0.296997,-2.198013 -1.366943,-2.539017c-12.251831,-3.908035 -21.284668,-10.200073 -28.377563,-16.651123c-0.817993,-0.744011 -0.859009,-2.006012 -0.140991,-2.846031c19.983643,-23.397156 20.229614,-48.433128 20.227661,-49.571125z" fill="#00a0ff" id="svg_4"/>
  <path d="m255.312805,31.422291l-3.136963,0c-1.134033,0 -2.052979,0.918999 -2.052979,2.052994l0,10.998962c0,1.133991 -0.918945,2.052986 -2.052979,2.052986l-7.379883,0c-1.13501,0 -2.053955,0.919003 -2.053955,2.052994l0,3.13699c0,1.133999 0.918945,2.052994 2.053955,2.052994l7.379883,0c1.134033,0 2.052979,0.918995 2.052979,2.052994l0,15.933083c0,1.13401 -0.918945,2.053009 -2.052979,2.053009l-7.379883,0c-1.13501,0 -2.053955,0.919014 -2.053955,2.053024l0,3.137016c0,1.13401 0.918945,2.053024 2.053955,2.053024l7.379883,0c1.134033,0 2.052979,0.920006 2.052979,2.054016l0,15.065094c0,3.270027 -1.307007,8.606064 -9.648804,9.310081c-1.078003,0.090988 -1.921997,0.965004 -1.921997,2.047012l0,3.125023c0,1.196007 1.017944,2.157013 2.209961,2.055008c8.099854,-0.693001 16.60379,-5.29203 16.60379,-16.537125l0,-15.065094c0,-1.13401 0.919067,-2.054016 2.053131,-2.054016l6.557129,0c1.133911,0 2.052979,-0.919014 2.052979,-2.053024l0,-3.137016c0,-1.13401 -0.919067,-2.053024 -2.052979,-2.053024l-6.557129,0c-1.134064,0 -2.053131,-0.918999 -2.053131,-2.053009l0,-15.933083c0,-1.133999 0.919067,-2.052994 2.053131,-2.052994l6.557129,0c1.133911,0 2.052979,-0.918995 2.052979,-2.052994l0,-3.13699c0,-1.133991 -0.919067,-2.052994 -2.052979,-2.052994l-6.557129,0c-1.134064,0 -2.053131,-0.918995 -2.053131,-2.052986l0,-10.998962c0,-1.133995 -0.918976,-2.052994 -2.053009,-2.052994z" fill="#00a0ff" id="svg_5"/>
  <path d="m271.651001,112.160583c0,1.134003 0.919189,2.053009 2.053101,2.053009l23.139282,0c10.239136,0 18.571167,-7.940056 18.571167,-17.700119l0,-48.631241c0,-1.133999 -0.919067,-2.052994 -2.052979,-2.052994l-39.657471,0c-1.133911,0 -2.053101,0.918995 -2.053101,2.052994l0,64.278351zm25.192383,-5.190033l-15.895142,0c-1.134033,0 -2.053101,-0.919014 -2.053101,-2.053024l0,-21.81115c0,-1.13401 0.919067,-2.052017 2.053101,-2.052017l25.168335,0c1.132935,0 2.052979,0.918007 2.052979,2.052017l0,13.407097c0,5.766029 -5.081055,10.457077 -11.326172,10.457077zm11.326172,-51.844341l0,16.631084c0,1.133995 -0.917969,2.053009 -2.052979,2.053009l-25.167358,0c-1.134033,0 -2.053101,-0.919014 -2.053101,-2.053009l0,-16.631084c0,-1.133999 0.919067,-2.052994 2.053101,-2.052994l25.167358,0c1.13501,0 2.052979,0.918995 2.052979,2.052994z" fill="#00a0ff" id="svg_6"/>
  <path d="m303.175537,31.368294l-20.440308,0c-1.133911,0 -2.052979,0.918995 -2.052979,2.052994l0,3.13699c0,1.133987 0.919067,2.052986 2.052979,2.052986l20.440308,0c1.134033,0 2.052979,-0.918999 2.052979,-2.052986l0,-3.13699c0,-1.133999 -0.918945,-2.052994 -2.052979,-2.052994z" fill="#00a0ff" id="svg_7"/>
  <path d="m381.310699,34.554276l-42.574249,0c-1.133911,0 -2.052856,0.919006 -2.052856,2.052998l0,3.13699c0,1.133995 0.918945,2.052994 2.052856,2.052994l42.574249,0c1.134155,0 2.053101,-0.918999 2.053101,-2.052994l0,-3.13699c0,-1.133991 -0.918945,-2.052998 -2.053101,-2.052998z" fill="#00a0ff" id="svg_8"/>
  <path d="m363.117584,70.867271l29.657471,0c1.134033,0 2.053101,-0.918999 2.053101,-2.053009l0,-3.137016c0,-1.13401 -0.919067,-2.05302 -2.053101,-2.05302l-65.511505,0c-1.134033,0 -2.052979,0.91901 -2.052979,2.05302l0,3.137016c0,1.13401 0.918945,2.053009 2.052979,2.053009l20.274933,0c1.638062,0 2.617065,1.82402 1.71106,3.189034l-13.49295,24.34417c-0.363037,0.545006 -0.63208,1.080009 -0.821045,1.633011c-1.129028,3.299034 -0.600952,6.838058 1.45105,9.710075c2.149902,3.010017 5.705933,4.806038 9.509918,4.806038l36.976318,0c1.661987,0 3.18103,-0.829002 4.061035,-2.218018c0.863037,-1.359009 0.968994,-3.039024 0.283081,-4.495033l-8.586304,-16.64312c-0.52002,-1.008003 -1.759033,-1.403015 -2.765991,-0.883003l-2.788086,1.439003c-1.008057,0.520012 -1.403076,1.758026 -0.883057,2.766029l5.055054,9.796059c0.705078,1.367012 -0.286987,2.995033 -1.825073,2.995033l-29.527954,0c-1.491943,0 -2.810089,-0.647011 -3.615997,-1.775024c-0.368042,-0.511993 -0.900024,-1.530006 -0.590088,-2.798012c0.052002,-0.212006 0.157104,-0.41301 0.278076,-0.596008l16.39798,-28.721199c1.057983,-1.592026 2.841064,-2.549034 4.752075,-2.549034z" fill="#00a0ff" id="svg_9"/>
 </g>
</svg>